<svg xmlns="http://www.w3.org/2000/svg" width="1240" height="575" fill="none"><g clip-path="url(#a)"><path fill="#FFF9F1" d="M0 50C0 22.386 22.386 0 50 0h1140c27.61 0 50 22.386 50 50v475c0 27.614-22.39 50-50 50H50c-27.614 0-50-22.386-50-50V50z"/><g filter="url(#b)"><path stroke="#EC8915" stroke-width="2" d="M360.53 583.991c2.634 176.498-145.812 321.911-331.673 324.685-185.861 2.774-338.579-138.145-341.213-314.643-2.634-176.498 145.811-321.911 331.672-324.685 185.861-2.774 338.58 138.145 341.214 314.643z" shape-rendering="crispEdges"/></g><g filter="url(#c)"><path stroke="#EC8915" stroke-width="2" d="M349.56 409.55c-54.387-77.386-108.219-120.284-197.999-157.882-13.028-5.456-13.836-24.025-1.105-30.142L427.453 88.432c12.135-5.83 25.642 5 22.534 18.099l-70.653 297.698c-3.267 13.765-21.64 16.896-29.774 5.321z" shape-rendering="crispEdges"/></g><g filter="url(#d)"><ellipse cx=".48" cy="555.017" fill="url(#e)" rx="337.48" ry="320.7"/></g><g filter="url(#f)"><path fill="url(#g)" d="M328.594 380.431c-53.226-78.189-106.412-121.885-195.621-160.819-12.945-5.649-13.476-24.229-.655-30.155L411.271 60.512c12.22-5.649 25.564 5.382 22.26 18.433l-75.087 296.61c-3.472 13.715-21.889 16.571-29.85 4.876z"/></g></g><defs><filter id="b" width="714.955" height="681.409" x="-328.391" y="260.308" color-interpolation-filters="sRGB" filterUnits="userSpaceOnUse"><feFlood flood-opacity="0" result="BackgroundImageFix"/><feColorMatrix in="SourceAlpha" result="hardAlpha" values="0 0 0 0 0 0 0 0 0 0 0 0 0 0 0 0 0 0 127 0"/><feOffset dx="5" dy="12"/><feGaussianBlur stdDeviation="10"/><feComposite in2="hardAlpha" operator="out"/><feColorMatrix values="0 0 0 0 0 0 0 0 0 0 0 0 0 0 0 0 0 0 0.25 0"/><feBlend in2="BackgroundImageFix" result="effect1_dropShadow_418_608"/><feBlend in="SourceGraphic" in2="effect1_dropShadow_418_608" result="shape"/></filter><filter id="c" width="351.105" height="371.839" x="125.335" y="77.813" color-interpolation-filters="sRGB" filterUnits="userSpaceOnUse"><feFlood flood-opacity="0" result="BackgroundImageFix"/><feColorMatrix in="SourceAlpha" result="hardAlpha" values="0 0 0 0 0 0 0 0 0 0 0 0 0 0 0 0 0 0 127 0"/><feOffset dx="5" dy="12"/><feGaussianBlur stdDeviation="10"/><feComposite in2="hardAlpha" operator="out"/><feColorMatrix values="0 0 0 0 0.5 0 0 0 0 0.270202 0 0 0 0 0 0 0 0 0.3 0"/><feBlend in2="BackgroundImageFix" result="effect1_dropShadow_418_608"/><feBlend in="SourceGraphic" in2="effect1_dropShadow_418_608" result="shape"/></filter><filter id="d" width="714.961" height="681.399" x="-352" y="226.317" color-interpolation-filters="sRGB" filterUnits="userSpaceOnUse"><feFlood flood-opacity="0" result="BackgroundImageFix"/><feColorMatrix in="SourceAlpha" result="hardAlpha" values="0 0 0 0 0 0 0 0 0 0 0 0 0 0 0 0 0 0 127 0"/><feOffset dx="5" dy="12"/><feGaussianBlur stdDeviation="10"/><feComposite in2="hardAlpha" operator="out"/><feColorMatrix values="0 0 0 0 0 0 0 0 0 0 0 0 0 0 0 0 0 0 0.25 0"/><feBlend in2="BackgroundImageFix" result="effect1_dropShadow_418_608"/><feBlend in="SourceGraphic" in2="effect1_dropShadow_418_608" result="shape"/></filter><filter id="f" width="351.063" height="368.744" x="107.979" y="50.996" color-interpolation-filters="sRGB" filterUnits="userSpaceOnUse"><feFlood flood-opacity="0" result="BackgroundImageFix"/><feColorMatrix in="SourceAlpha" result="hardAlpha" values="0 0 0 0 0 0 0 0 0 0 0 0 0 0 0 0 0 0 127 0"/><feOffset dx="5" dy="12"/><feGaussianBlur stdDeviation="10"/><feComposite in2="hardAlpha" operator="out"/><feColorMatrix values="0 0 0 0 0.5 0 0 0 0 0.270202 0 0 0 0 0 0 0 0 0.3 0"/><feBlend in2="BackgroundImageFix" result="effect1_dropShadow_418_608"/><feBlend in="SourceGraphic" in2="effect1_dropShadow_418_608" result="shape"/></filter><linearGradient id="e" x1="230.439" x2="-87.153" y1="316.15" y2="694.65" gradientUnits="userSpaceOnUse"><stop stop-color="#FF9820"/><stop offset="1" stop-color="#C76C01"/></linearGradient><linearGradient id="g" x1="251.561" x2="392.287" y1="132.806" y2="248.662" gradientUnits="userSpaceOnUse"><stop stop-color="#FF981F"/><stop offset="1" stop-color="#C76B00"/></linearGradient><clipPath id="a"><path fill="#fff" d="M0 50C0 22.386 22.386 0 50 0h1140c27.61 0 50 22.386 50 50v475c0 27.614-22.39 50-50 50H50c-27.614 0-50-22.386-50-50V50z"/></clipPath></defs></svg>