<svg xmlns="http://www.w3.org/2000/svg" width="483" height="227" fill="none"><path fill="#000" d="M195.728 110.64c-3.115 0-6.016-.576-8.704-1.728a21.917 21.917 0 0 1-6.976-4.8c-1.963-2.048-3.499-4.437-4.608-7.168-1.067-2.73-1.6-5.675-1.6-8.832 0-3.157.533-6.08 1.6-8.768 1.067-2.73 2.581-5.099 4.544-7.104a22.119 22.119 0 0 1 6.912-4.8c2.645-1.152 5.525-1.728 8.64-1.728 3.243 0 6.187.597 8.832 1.792a22.078 22.078 0 0 1 7.04 4.928L209.04 74.8c-1.621-1.835-3.584-3.264-5.888-4.288-2.304-1.024-4.843-1.536-7.616-1.536-2.603 0-5.013.49-7.232 1.472a17.21 17.21 0 0 0-5.824 4.032c-1.621 1.707-2.88 3.733-3.776 6.08-.896 2.304-1.344 4.821-1.344 7.552 0 2.73.448 5.27 1.344 7.616.939 2.347 2.219 4.395 3.84 6.144a17.306 17.306 0 0 0 5.76 4.096c2.261.939 4.693 1.408 7.296 1.408 2.859 0 5.461-.512 7.808-1.536 2.347-1.067 4.331-2.517 5.952-4.352l2.368 2.304c-1.963 2.133-4.309 3.819-7.04 5.056-2.688 1.195-5.675 1.792-8.96 1.792zm20.651-.64 17.792-43.648h2.688L254.587 110h-3.712l-16.064-40.192h1.344L219.963 110h-3.584zm7.744-12.864v-3.008h22.72v3.008h-22.72zm40.689-5.184v-3.008h13.825c2.005 0 3.776-.384 5.312-1.152a9.314 9.314 0 0 0 3.648-3.392c.896-1.493 1.344-3.243 1.344-5.248 0-2.005-.448-3.733-1.344-5.184a8.735 8.735 0 0 0-3.648-3.392c-1.536-.81-3.307-1.216-5.312-1.216h-13.825v-3.008h14.209c2.56 0 4.821.533 6.784 1.6a11.53 11.53 0 0 1 4.736 4.416c1.194 1.92 1.792 4.181 1.792 6.784 0 2.603-.598 4.864-1.792 6.784-1.152 1.877-2.731 3.35-4.736 4.416-1.963 1.067-4.224 1.6-6.784 1.6h-14.209zM262.765 110V66.352h3.392V110h-3.392zm-87.517 53v-44.416h4.224l1.792 6.976V163h-6.016zm30.72 0-27.264-36.416.768-8 27.328 36.352-.832 8.064zm0 0-1.792-6.592v-37.824h6.016V163h-4.224zm25.917.64c-2.474 0-4.714-.555-6.719-1.664a12.285 12.285 0 0 1-4.608-4.736c-1.11-2.005-1.664-4.331-1.664-6.976V132.6h5.76v17.408c0 1.664.277 3.115.832 4.352.597 1.195 1.45 2.112 2.56 2.752 1.109.64 2.41.96 3.904.96 2.261 0 4.032-.704 5.312-2.112 1.28-1.451 1.92-3.435 1.92-5.952V132.6h5.76v17.664c0 2.645-.555 4.971-1.664 6.976a12.3 12.3 0 0 1-4.608 4.736c-1.92 1.109-4.182 1.664-6.785 1.664zm20.776-.64v-30.4h5.761V163h-5.761zm20.545 0v-18.368c0-2.261-.704-4.032-2.112-5.312-1.366-1.323-3.094-1.984-5.184-1.984-1.408 0-2.667.299-3.776.896a7.175 7.175 0 0 0-2.688 2.496c-.683 1.067-1.024 2.347-1.024 3.84l-2.368-1.152c0-2.304.49-4.309 1.472-6.016a10.623 10.623 0 0 1 4.16-3.968c1.749-.981 3.712-1.472 5.888-1.472 2.133 0 4.053.469 5.76 1.408a10.192 10.192 0 0 1 4.096 3.968c1.024 1.707 1.536 3.733 1.536 6.08V163h-5.76zm20.544 0v-18.368c0-2.261-.704-4.032-2.112-5.312-1.366-1.323-3.072-1.984-5.12-1.984-1.408 0-2.688.299-3.84.896a7.175 7.175 0 0 0-2.688 2.496c-.683 1.067-1.024 2.347-1.024 3.84l-3.264-1.152c.128-2.347.746-4.352 1.856-6.016a11.947 11.947 0 0 1 4.416-3.968c1.792-.981 3.754-1.472 5.888-1.472 2.218 0 4.202.469 5.952 1.408a10.63 10.63 0 0 1 4.16 3.968c1.066 1.707 1.6 3.755 1.6 6.144V163h-5.824zm27.742.64c-3.03 0-5.76-.683-8.192-2.048-2.432-1.408-4.352-3.307-5.76-5.696-1.408-2.389-2.112-5.099-2.112-8.128 0-2.987.682-5.675 2.048-8.064 1.408-2.389 3.285-4.267 5.632-5.632 2.389-1.408 5.056-2.112 8-2.112 2.816 0 5.29.64 7.424 1.92 2.176 1.28 3.861 3.051 5.056 5.312 1.237 2.261 1.856 4.821 1.856 7.68 0 .427-.022.896-.064 1.408a16.191 16.191 0 0 1-.256 1.664H309.46v-4.8h22.592L329.94 147c0-2.048-.363-3.776-1.088-5.184-.726-1.451-1.75-2.56-3.072-3.328-1.323-.811-2.923-1.216-4.8-1.216-1.963 0-3.691.427-5.184 1.28a8.73 8.73 0 0 0-3.456 3.584c-.811 1.536-1.216 3.349-1.216 5.44 0 2.133.426 4.011 1.28 5.632a9.247 9.247 0 0 0 3.648 3.712c1.578.853 3.392 1.28 5.44 1.28 1.706 0 3.264-.299 4.672-.896a9.674 9.674 0 0 0 3.712-2.688l3.712 3.776c-1.451 1.707-3.243 3.008-5.376 3.904-2.091.896-4.331 1.344-6.72 1.344zm-4.288-35.584-2.624-2.624 8.32-10.304 4.544 4.544-10.24 8.384zM341.724 163v-30.4h5.76V163h-5.76zm5.76-17.344-2.176-.96c0-3.883.896-6.976 2.688-9.28 1.792-2.304 4.373-3.456 7.744-3.456 1.536 0 2.923.277 4.16.832 1.237.512 2.389 1.387 3.456 2.624l-3.776 3.904c-.64-.683-1.344-1.173-2.112-1.472-.768-.299-1.664-.448-2.688-.448-2.133 0-3.883.683-5.248 2.048-1.365 1.365-2.048 3.435-2.048 6.208zM367.476 163v-30.4h5.76V163h-5.76zm2.88-36.48c-1.067 0-1.942-.341-2.624-1.024-.683-.725-1.024-1.621-1.024-2.688 0-1.024.341-1.877 1.024-2.56.682-.725 1.557-1.088 2.624-1.088 1.066 0 1.941.363 2.624 1.088.682.683 1.024 1.536 1.024 2.56 0 1.067-.342 1.963-1.024 2.688-.683.683-1.558 1.024-2.624 1.024zm24.36 37.12c-2.816 0-5.355-.683-7.616-2.048-2.261-1.408-4.053-3.307-5.376-5.696-1.28-2.389-1.92-5.077-1.92-8.064s.64-5.675 1.92-8.064c1.323-2.389 3.115-4.288 5.376-5.696 2.261-1.408 4.779-2.112 7.552-2.112 2.347 0 4.416.491 6.208 1.472 1.835.939 3.285 2.261 4.352 3.968 1.109 1.664 1.728 3.605 1.856 5.824v9.152c-.128 2.176-.747 4.117-1.856 5.824-1.067 1.707-2.517 3.051-4.352 4.032-1.792.939-3.84 1.408-6.144 1.408zm.896-5.44c2.859 0 5.163-.96 6.912-2.88 1.749-1.963 2.624-4.459 2.624-7.488 0-2.091-.405-3.904-1.216-5.44-.768-1.579-1.877-2.795-3.328-3.648-1.408-.896-3.072-1.344-4.992-1.344s-3.627.448-5.12 1.344c-1.451.896-2.603 2.133-3.456 3.712-.853 1.536-1.28 3.307-1.28 5.312 0 2.048.427 3.861 1.28 5.44.853 1.536 2.005 2.752 3.456 3.648 1.493.896 3.2 1.344 5.12 1.344zm9.216 17.536v-20.352l1.024-7.424-1.024-7.36v-8h5.76v43.136h-5.76zm26.432-12.096c-2.474 0-4.714-.555-6.719-1.664a12.285 12.285 0 0 1-4.608-4.736c-1.11-2.005-1.664-4.331-1.664-6.976V132.6h5.76v17.408c0 1.664.277 3.115.832 4.352.597 1.195 1.45 2.112 2.56 2.752 1.109.64 2.41.96 3.904.96 2.261 0 4.032-.704 5.312-2.112 1.28-1.451 1.92-3.435 1.92-5.952V132.6h5.76v17.664c0 2.645-.555 4.971-1.664 6.976a12.3 12.3 0 0 1-4.608 4.736c-1.92 1.109-4.182 1.664-6.785 1.664zm34.857 0c-3.03 0-5.76-.683-8.192-2.048-2.432-1.408-4.352-3.307-5.76-5.696-1.408-2.389-2.112-5.099-2.112-8.128 0-2.987.682-5.675 2.048-8.064 1.408-2.389 3.285-4.267 5.632-5.632 2.389-1.408 5.056-2.112 8-2.112 2.816 0 5.29.64 7.424 1.92 2.176 1.28 3.861 3.051 5.056 5.312 1.237 2.261 1.856 4.821 1.856 7.68 0 .427-.022.896-.064 1.408a16.191 16.191 0 0 1-.256 1.664h-25.664v-4.8h22.592L474.565 147c0-2.048-.363-3.776-1.088-5.184-.726-1.451-1.75-2.56-3.072-3.328-1.323-.811-2.923-1.216-4.8-1.216-1.963 0-3.691.427-5.184 1.28a8.73 8.73 0 0 0-3.456 3.584c-.811 1.536-1.216 3.349-1.216 5.44 0 2.133.426 4.011 1.28 5.632a9.247 9.247 0 0 0 3.648 3.712c1.578.853 3.392 1.28 5.44 1.28 1.706 0 3.264-.299 4.672-.896a9.674 9.674 0 0 0 3.712-2.688l3.712 3.776c-1.451 1.707-3.243 3.008-5.376 3.904-2.091.896-4.331 1.344-6.72 1.344zM178.2 179.13a4.57 4.57 0 0 1-1.794-.351 4.308 4.308 0 0 1-1.43-.988 4.605 4.605 0 0 1-.949-1.469 4.983 4.983 0 0 1-.325-1.807c0-.641.108-1.239.325-1.794a4.522 4.522 0 0 1 .936-1.469 4.41 4.41 0 0 1 3.198-1.326c.685 0 1.296.121 1.833.364a4.482 4.482 0 0 1 1.43 1.001l-.65.65a3.213 3.213 0 0 0-1.131-.806 3.57 3.57 0 0 0-1.482-.299c-.503 0-.966.091-1.391.273a3.38 3.38 0 0 0-1.105.78 3.502 3.502 0 0 0-.728 1.17 4.132 4.132 0 0 0-.247 1.456c0 .529.087 1.018.26 1.469.173.451.416.845.728 1.183.312.329.68.585 1.105.767.425.182.888.273 1.391.273.572 0 1.079-.1 1.521-.299a3.316 3.316 0 0 0 1.144-.819l.65.663a4.455 4.455 0 0 1-1.43 1.014c-.555.243-1.174.364-1.859.364zm7.264 0a3.119 3.119 0 0 1-1.612-.429 3.26 3.26 0 0 1-1.144-1.157 3.22 3.22 0 0 1-.416-1.625c0-.589.139-1.122.416-1.599a3.18 3.18 0 0 1 1.144-1.131 3.119 3.119 0 0 1 1.612-.429c.598 0 1.136.139 1.612.416.477.277.854.659 1.131 1.144a3.05 3.05 0 0 1 .429 1.599c0 .607-.143 1.153-.429 1.638a3.172 3.172 0 0 1-1.131 1.144 3.07 3.07 0 0 1-1.612.429zm0-.884c.434 0 .815-.1 1.144-.299a2.09 2.09 0 0 0 .793-.832c.2-.355.299-.754.299-1.196 0-.442-.099-.832-.299-1.17a2.11 2.11 0 0 0-.793-.819 2.166 2.166 0 0 0-1.144-.299c-.424 0-.806.1-1.144.299a2.116 2.116 0 0 0-.793.819c-.19.338-.286.728-.286 1.17 0 .451.096.854.286 1.209.191.347.455.62.793.819.338.199.72.299 1.144.299zm9.066.754v-3.588c0-.537-.16-.971-.481-1.3-.312-.338-.728-.507-1.248-.507-.355 0-.667.078-.936.234a1.723 1.723 0 0 0-.637.637 1.804 1.804 0 0 0-.234.923l-.416-.234a2.366 2.366 0 0 1 1.196-2.093 2.57 2.57 0 0 1 1.274-.312c.468 0 .884.113 1.248.338.364.225.646.529.845.91.208.381.312.797.312 1.248V179h-.923zm-4.446 0v-6.11h.91V179h-.91zm8.943.13a3.43 3.43 0 0 1-.949-.13 3.325 3.325 0 0 1-.832-.39 2.957 2.957 0 0 1-.637-.585l.585-.598c.243.295.516.516.819.663.312.139.659.208 1.04.208.408 0 .724-.078.949-.234a.74.74 0 0 0 .351-.65c0-.26-.082-.464-.247-.611a1.796 1.796 0 0 0-.637-.351c-.251-.087-.52-.169-.806-.247a6.247 6.247 0 0 1-.819-.312 1.743 1.743 0 0 1-.637-.533c-.156-.225-.234-.52-.234-.884 0-.347.083-.646.247-.897.174-.26.416-.459.728-.598.321-.147.698-.221 1.131-.221.46 0 .876.082 1.248.247.373.165.672.407.897.728l-.585.585a1.735 1.735 0 0 0-.689-.533 2.06 2.06 0 0 0-.91-.195c-.39 0-.689.078-.897.234a.693.693 0 0 0-.299.585c0 .234.083.42.247.559.165.13.373.238.624.325l.819.247c.286.078.559.186.819.325.26.13.468.312.624.546.165.225.247.533.247.923 0 .546-.199.984-.598 1.313-.39.321-.923.481-1.599.481zm6.459 0a3.274 3.274 0 0 1-1.651-.416 3.12 3.12 0 0 1-1.157-1.144 3.244 3.244 0 0 1-.416-1.638 3.15 3.15 0 0 1 1.547-2.756 3.126 3.126 0 0 1 1.599-.416c.555 0 1.045.126 1.469.377.434.251.772.602 1.014 1.053.252.442.377.953.377 1.534a2.66 2.66 0 0 1-.065.559h-5.291v-.78h4.797l-.325.286c.009-.451-.069-.836-.234-1.157a1.661 1.661 0 0 0-.689-.754c-.294-.182-.654-.273-1.079-.273-.442 0-.827.095-1.157.286a2.058 2.058 0 0 0-.78.806c-.182.338-.273.741-.273 1.209 0 .468.096.88.286 1.235.2.355.473.633.819.832.356.199.763.299 1.222.299.373 0 .715-.065 1.027-.195.312-.139.577-.342.793-.611l.585.598a2.966 2.966 0 0 1-1.066.793 3.333 3.333 0 0 1-1.352.273zm4.174-.13v-6.11h.923V179h-.923zm.455-7.436a.605.605 0 0 1-.442-.182.648.648 0 0 1-.182-.455.618.618 0 0 1 .624-.637.59.59 0 0 1 .455.182.614.614 0 0 1 .182.455c0 .173-.06.325-.182.455a.59.59 0 0 1-.455.182zm2.313 7.436v-9.204h.91V179h-.91zm4.738 0 3.666-8.944h.715l3.627 8.944h-1.027l-3.159-7.904h.377L218.18 179h-1.014zm1.677-2.327v-.845h4.68v.845h-4.68zm10.103 2.457a3.222 3.222 0 0 1-1.625-.416 3.26 3.26 0 0 1-1.144-1.157 3.22 3.22 0 0 1-.416-1.625c0-.598.139-1.135.416-1.612a3.153 3.153 0 0 1 1.144-1.144 3.222 3.222 0 0 1 1.625-.416c.46 0 .889.087 1.287.26.399.173.737.416 1.014.728l-.598.611a2.021 2.021 0 0 0-.754-.533 2.322 2.322 0 0 0-.949-.195c-.433 0-.819.1-1.157.299a2.116 2.116 0 0 0-.793.819c-.19.338-.286.732-.286 1.183 0 .442.096.841.286 1.196.191.347.455.62.793.819.338.199.724.299 1.157.299.347 0 .668-.061.962-.182.295-.13.546-.312.754-.546l.611.611a2.877 2.877 0 0 1-1.04.741c-.398.173-.827.26-1.287.26zm6.272 0a3.22 3.22 0 0 1-1.625-.416 3.252 3.252 0 0 1-1.144-1.157 3.209 3.209 0 0 1-.416-1.625c0-.598.138-1.135.416-1.612a3.145 3.145 0 0 1 1.144-1.144 3.22 3.22 0 0 1 1.625-.416 3.2 3.2 0 0 1 1.287.26c.398.173.736.416 1.014.728l-.598.611a2.03 2.03 0 0 0-.754-.533 2.326 2.326 0 0 0-.949-.195c-.434 0-.819.1-1.157.299a2.11 2.11 0 0 0-.793.819c-.191.338-.286.732-.286 1.183 0 .442.095.841.286 1.196.19.347.455.62.793.819.338.199.723.299 1.157.299.346 0 .667-.061.962-.182a2.17 2.17 0 0 0 .754-.546l.611.611a2.885 2.885 0 0 1-1.04.741 3.2 3.2 0 0 1-1.287.26zm6.258 0a3.119 3.119 0 0 1-1.612-.429 3.26 3.26 0 0 1-1.144-1.157 3.22 3.22 0 0 1-.416-1.625c0-.589.139-1.122.416-1.599a3.18 3.18 0 0 1 1.144-1.131 3.119 3.119 0 0 1 1.612-.429c.598 0 1.136.139 1.612.416.477.277.854.659 1.131 1.144a3.05 3.05 0 0 1 .429 1.599c0 .607-.143 1.153-.429 1.638a3.172 3.172 0 0 1-1.131 1.144 3.07 3.07 0 0 1-1.612.429zm0-.884c.434 0 .815-.1 1.144-.299a2.09 2.09 0 0 0 .793-.832c.2-.355.299-.754.299-1.196 0-.442-.099-.832-.299-1.17a2.11 2.11 0 0 0-.793-.819 2.166 2.166 0 0 0-1.144-.299c-.424 0-.806.1-1.144.299a2.116 2.116 0 0 0-.793.819c-.19.338-.286.728-.286 1.17 0 .451.096.854.286 1.209.191.347.455.62.793.819.338.199.72.299 1.144.299zm4.62.754v-6.11h.91V179h-.91zm4.199 0v-3.744c0-.503-.152-.901-.455-1.196-.303-.303-.685-.455-1.144-.455a1.79 1.79 0 0 0-.858.208c-.251.13-.455.316-.611.559a1.65 1.65 0 0 0-.221.871l-.416-.169c0-.468.104-.875.312-1.222.208-.347.485-.615.832-.806a2.484 2.484 0 0 1 1.196-.286c.433 0 .819.095 1.157.286.347.191.62.459.819.806.208.347.312.758.312 1.235V179h-.923zm4.212 0v-3.744c0-.503-.152-.901-.455-1.196-.303-.303-.689-.455-1.157-.455-.303 0-.585.069-.845.208-.251.13-.455.316-.611.559a1.65 1.65 0 0 0-.221.871l-.546-.169c.026-.468.147-.875.364-1.222.225-.347.516-.615.871-.806a2.535 2.535 0 0 1 1.196-.286c.433 0 .823.095 1.17.286.355.191.633.459.832.806.208.347.312.758.312 1.235V179h-.91zm5.78.13c-.468 0-.888-.095-1.261-.286a2.607 2.607 0 0 1-.923-.78 2.542 2.542 0 0 1-.429-1.17v-1.911a2.39 2.39 0 0 1 .442-1.17c.243-.338.55-.598.923-.78a2.858 2.858 0 0 1 1.248-.273c.563 0 1.07.143 1.521.429.451.277.806.659 1.066 1.144.269.477.403 1.018.403 1.625 0 .598-.13 1.135-.39 1.612a3.04 3.04 0 0 1-1.079 1.144 2.848 2.848 0 0 1-1.521.416zm-.156-.871c.433 0 .815-.095 1.144-.286.329-.199.585-.472.767-.819a2.51 2.51 0 0 0 .286-1.209c0-.459-.095-.862-.286-1.209a2.052 2.052 0 0 0-.767-.819 2.142 2.142 0 0 0-1.131-.299c-.425 0-.802.1-1.131.299a2.078 2.078 0 0 0-.754.819c-.182.347-.273.75-.273 1.209 0 .451.091.854.273 1.209.182.347.433.62.754.819.321.191.693.286 1.118.286zm-3.003 3.315v-8.684h.91v1.56l-.182 1.482.182 1.495v4.147h-.91zm10.257-2.444a2.96 2.96 0 0 1-1.56-.416 3.13 3.13 0 0 1-1.092-1.144 3.312 3.312 0 0 1-.39-1.612c0-.607.13-1.148.39-1.625a3.004 3.004 0 0 1 1.092-1.144 2.866 2.866 0 0 1 1.547-.429c.468 0 .884.095 1.248.286.372.182.671.442.897.78.234.329.377.715.429 1.157v1.911a2.542 2.542 0 0 1-.429 1.17 2.349 2.349 0 0 1-.897.793 2.725 2.725 0 0 1-1.235.273zm.143-.871c.632 0 1.139-.212 1.521-.637.39-.425.585-.984.585-1.677 0-.459-.091-.862-.273-1.209a1.903 1.903 0 0 0-.741-.819c-.312-.199-.681-.299-1.105-.299-.434 0-.819.1-1.157.299-.33.199-.594.477-.793.832a2.437 2.437 0 0 0-.286 1.196c0 .451.095.849.286 1.196.199.347.468.62.806.819.338.199.723.299 1.157.299zm2.054.741v-1.638l.182-1.508-.182-1.469v-1.495h.91V179h-.91zm5.277 2.704c-.615 0-1.166-.117-1.651-.351a2.916 2.916 0 0 1-1.157-.962l.598-.598c.243.329.55.585.923.767.373.182.81.273 1.313.273.693 0 1.244-.186 1.651-.559.416-.373.624-.88.624-1.521v-1.521l.182-1.391-.182-1.378v-1.573h.91v5.863c0 .589-.134 1.105-.403 1.547a2.714 2.714 0 0 1-1.131 1.027c-.477.251-1.036.377-1.677.377zm.065-2.769c-.563 0-1.07-.134-1.521-.403a2.903 2.903 0 0 1-1.066-1.105 3.21 3.21 0 0 1-.39-1.586c0-.589.126-1.114.377-1.573.26-.468.615-.836 1.066-1.105a2.912 2.912 0 0 1 1.521-.403c.477 0 .901.091 1.274.273.381.182.685.442.91.78.234.329.377.719.429 1.17v1.729a2.542 2.542 0 0 1-.429 1.17 2.489 2.489 0 0 1-.91.78 2.837 2.837 0 0 1-1.261.273zm.169-.871c.425 0 .793-.091 1.105-.273.321-.182.568-.438.741-.767.182-.338.273-.732.273-1.183 0-.442-.091-.828-.273-1.157a1.945 1.945 0 0 0-.741-.78 2.143 2.143 0 0 0-1.118-.286c-.425 0-.806.095-1.144.286a2.115 2.115 0 0 0-.78.78c-.182.329-.273.715-.273 1.157 0 .433.095.819.286 1.157.191.338.451.602.78.793.329.182.711.273 1.144.273zm9.256.936v-3.588c0-.537-.16-.971-.481-1.3-.312-.338-.728-.507-1.248-.507-.355 0-.667.078-.936.234a1.73 1.73 0 0 0-.637.637 1.804 1.804 0 0 0-.234.923l-.416-.234c0-.459.109-.871.325-1.235.217-.364.507-.65.871-.858a2.572 2.572 0 0 1 1.274-.312c.468 0 .884.113 1.248.338.364.225.646.529.845.91.208.381.312.797.312 1.248V179h-.923zm-4.446 0v-6.11h.91V179h-.91zm9.893.13c-.616 0-1.166-.139-1.651-.416a3.113 3.113 0 0 1-1.157-1.144 3.234 3.234 0 0 1-.416-1.638c0-.598.138-1.135.416-1.612a3.045 3.045 0 0 1 1.131-1.144 3.12 3.12 0 0 1 1.599-.416c.554 0 1.044.126 1.469.377.433.251.771.602 1.014 1.053.251.442.377.953.377 1.534 0 .069-.005.152-.013.247a2.963 2.963 0 0 1-.052.312h-5.291v-.78h4.797l-.325.286c.008-.451-.07-.836-.234-1.157a1.667 1.667 0 0 0-.689-.754c-.295-.182-.655-.273-1.079-.273-.442 0-.828.095-1.157.286-.33.191-.59.459-.78.806-.182.338-.273.741-.273 1.209 0 .468.095.88.286 1.235.199.355.472.633.819.832.355.199.762.299 1.222.299.372 0 .715-.065 1.027-.195.312-.139.576-.342.793-.611l.585.598a2.975 2.975 0 0 1-1.066.793 3.337 3.337 0 0 1-1.352.273zm4.174-.13v-6.11h.91V179h-.91zm4.199 0v-3.744c0-.503-.152-.901-.455-1.196-.303-.303-.685-.455-1.144-.455a1.79 1.79 0 0 0-.858.208c-.251.13-.455.316-.611.559a1.65 1.65 0 0 0-.221.871l-.416-.169c0-.468.104-.875.312-1.222.208-.347.485-.615.832-.806a2.484 2.484 0 0 1 1.196-.286c.433 0 .819.095 1.157.286.347.191.62.459.819.806.208.347.312.758.312 1.235V179h-.923zm4.212 0v-3.744c0-.503-.152-.901-.455-1.196-.303-.303-.689-.455-1.157-.455-.303 0-.585.069-.845.208-.251.13-.455.316-.611.559a1.65 1.65 0 0 0-.221.871l-.546-.169c.026-.468.147-.875.364-1.222.225-.347.516-.615.871-.806a2.535 2.535 0 0 1 1.196-.286c.433 0 .823.095 1.17.286.355.191.633.459.832.806.208.347.312.758.312 1.235V179h-.91zm5.442.13a3.271 3.271 0 0 1-1.651-.416 3.12 3.12 0 0 1-1.157-1.144 3.244 3.244 0 0 1-.416-1.638c0-.598.139-1.135.416-1.612a3.045 3.045 0 0 1 1.131-1.144 3.126 3.126 0 0 1 1.599-.416c.555 0 1.044.126 1.469.377.433.251.771.602 1.014 1.053.251.442.377.953.377 1.534a2.66 2.66 0 0 1-.065.559h-5.291v-.78h4.797l-.325.286c.009-.451-.069-.836-.234-1.157a1.667 1.667 0 0 0-.689-.754c-.295-.182-.654-.273-1.079-.273-.442 0-.828.095-1.157.286a2.058 2.058 0 0 0-.78.806c-.182.338-.273.741-.273 1.209 0 .468.095.88.286 1.235.199.355.472.633.819.832.355.199.763.299 1.222.299.373 0 .715-.065 1.027-.195.312-.139.576-.342.793-.611l.585.598a2.966 2.966 0 0 1-1.066.793 3.337 3.337 0 0 1-1.352.273zm8.62-.13v-3.588c0-.537-.16-.971-.481-1.3-.312-.338-.728-.507-1.248-.507-.355 0-.667.078-.936.234a1.73 1.73 0 0 0-.637.637 1.804 1.804 0 0 0-.234.923l-.416-.234c0-.459.109-.871.325-1.235.217-.364.507-.65.871-.858a2.572 2.572 0 0 1 1.274-.312c.468 0 .884.113 1.248.338.364.225.646.529.845.91.208.381.312.797.312 1.248V179h-.923zm-4.446 0v-6.11h.91V179h-.91zm7.944 0v-8.684h.91V179h-.91zm-1.547-5.291v-.819h3.991v.819h-3.991zm8.87 1.703v-.845h2.639c.364 0 .689-.074.975-.221a1.66 1.66 0 0 0 .689-.624c.173-.277.26-.607.26-.988s-.087-.706-.26-.975a1.638 1.638 0 0 0-.689-.637 2.003 2.003 0 0 0-.975-.234h-2.639v-.832h2.704c.537 0 1.018.113 1.443.338.424.217.758.524 1.001.923.251.399.377.871.377 1.417 0 .537-.126 1.01-.377 1.417a2.544 2.544 0 0 1-1.001.936 3.128 3.128 0 0 1-1.443.325h-2.704zm-.611 3.588v-8.944h.949V179h-.949zm10.115.13a3.274 3.274 0 0 1-1.651-.416 3.12 3.12 0 0 1-1.157-1.144 3.244 3.244 0 0 1-.416-1.638 3.15 3.15 0 0 1 1.547-2.756 3.126 3.126 0 0 1 1.599-.416c.555 0 1.045.126 1.469.377.434.251.772.602 1.014 1.053.252.442.377.953.377 1.534a2.66 2.66 0 0 1-.065.559h-5.291v-.78h4.797l-.325.286c.009-.451-.069-.836-.234-1.157a1.661 1.661 0 0 0-.689-.754c-.294-.182-.654-.273-1.079-.273-.442 0-.827.095-1.157.286a2.058 2.058 0 0 0-.78.806c-.182.338-.273.741-.273 1.209 0 .468.096.88.286 1.235.2.355.473.633.819.832.356.199.763.299 1.222.299.373 0 .715-.065 1.027-.195.312-.139.577-.342.793-.611l.585.598a2.966 2.966 0 0 1-1.066.793 3.333 3.333 0 0 1-1.352.273zm4.175-.13v-6.11h.91V179h-.91zm.91-3.562-.377-.169c0-.771.186-1.382.559-1.833.381-.451.901-.676 1.56-.676.303 0 .58.056.832.169.251.104.485.273.702.507l-.598.637a1.267 1.267 0 0 0-.494-.351 1.612 1.612 0 0 0-.598-.104c-.468 0-.85.156-1.144.468-.295.303-.442.754-.442 1.352zM346.93 179v-7.15c0-.425.091-.802.273-1.131.191-.329.451-.585.78-.767.338-.191.72-.286 1.144-.286.33 0 .62.061.871.182.252.113.481.273.689.481l-.598.598a1.283 1.283 0 0 0-.442-.299 1.212 1.212 0 0 0-.52-.104c-.407 0-.723.121-.949.364-.216.234-.325.563-.325.988V179h-.923zm-1.534-5.291v-.819h4.498v.819h-4.498zm8.129 5.421a3.116 3.116 0 0 1-1.612-.429 3.252 3.252 0 0 1-1.144-1.157 3.22 3.22 0 0 1-.416-1.625c0-.589.139-1.122.416-1.599a3.172 3.172 0 0 1 1.144-1.131 3.116 3.116 0 0 1 1.612-.429 3.15 3.15 0 0 1 1.612.416c.477.277.854.659 1.131 1.144a3.05 3.05 0 0 1 .429 1.599c0 .607-.143 1.153-.429 1.638a3.172 3.172 0 0 1-1.131 1.144 3.073 3.073 0 0 1-1.612.429zm0-.884c.433 0 .815-.1 1.144-.299.338-.199.602-.477.793-.832.199-.355.299-.754.299-1.196 0-.442-.1-.832-.299-1.17a2.116 2.116 0 0 0-.793-.819 2.169 2.169 0 0 0-1.144-.299c-.425 0-.806.1-1.144.299a2.116 2.116 0 0 0-.793.819 2.337 2.337 0 0 0-.286 1.17c0 .451.095.854.286 1.209.191.347.455.62.793.819.338.199.719.299 1.144.299zm4.62.754v-6.11h.91V179h-.91zm.91-3.562-.377-.169c0-.771.186-1.382.559-1.833.381-.451.901-.676 1.56-.676.303 0 .58.056.832.169.251.104.485.273.702.507l-.598.637a1.267 1.267 0 0 0-.494-.351 1.612 1.612 0 0 0-.598-.104c-.468 0-.85.156-1.144.468-.295.303-.442.754-.442 1.352zM363.35 179v-6.11h.91V179h-.91zm4.199 0v-3.744c0-.503-.152-.901-.455-1.196-.304-.303-.685-.455-1.144-.455a1.79 1.79 0 0 0-.858.208 1.57 1.57 0 0 0-.611.559 1.641 1.641 0 0 0-.221.871l-.416-.169c0-.468.104-.875.312-1.222.208-.347.485-.615.832-.806a2.484 2.484 0 0 1 1.196-.286c.433 0 .819.095 1.157.286a2.1 2.1 0 0 1 .819.806c.208.347.312.758.312 1.235V179h-.923zm4.212 0v-3.744c0-.503-.152-.901-.455-1.196-.304-.303-.689-.455-1.157-.455-.304 0-.585.069-.845.208a1.57 1.57 0 0 0-.611.559 1.641 1.641 0 0 0-.221.871l-.546-.169c.026-.468.147-.875.364-1.222.225-.347.515-.615.871-.806a2.532 2.532 0 0 1 1.196-.286c.433 0 .823.095 1.17.286.355.191.632.459.832.806.208.347.312.758.312 1.235V179h-.91zm5.273.13a2.96 2.96 0 0 1-1.56-.416 3.146 3.146 0 0 1-1.092-1.144 3.312 3.312 0 0 1-.39-1.612c0-.607.13-1.148.39-1.625a3.019 3.019 0 0 1 1.092-1.144 2.866 2.866 0 0 1 1.547-.429c.468 0 .884.095 1.248.286.373.182.672.442.897.78.234.329.377.715.429 1.157v1.911a2.542 2.542 0 0 1-.429 1.17 2.334 2.334 0 0 1-.897.793 2.725 2.725 0 0 1-1.235.273zm.143-.871c.633 0 1.14-.212 1.521-.637.39-.425.585-.984.585-1.677 0-.459-.091-.862-.273-1.209a1.89 1.89 0 0 0-.741-.819c-.312-.199-.68-.299-1.105-.299-.433 0-.819.1-1.157.299a2.22 2.22 0 0 0-.793.832 2.437 2.437 0 0 0-.286 1.196c0 .451.095.849.286 1.196.199.347.468.62.806.819.338.199.724.299 1.157.299zm2.054.741v-1.638l.182-1.508-.182-1.469v-1.495h.91V179h-.91zm7.201 0v-3.588c0-.537-.16-.971-.481-1.3-.312-.338-.728-.507-1.248-.507-.355 0-.667.078-.936.234a1.73 1.73 0 0 0-.637.637 1.804 1.804 0 0 0-.234.923l-.416-.234c0-.459.109-.871.325-1.235.217-.364.507-.65.871-.858a2.572 2.572 0 0 1 1.274-.312c.468 0 .884.113 1.248.338.364.225.646.529.845.91.208.381.312.797.312 1.248V179h-.923zm-4.446 0v-6.11h.91V179h-.91zm9.854.13a3.22 3.22 0 0 1-1.625-.416 3.252 3.252 0 0 1-1.144-1.157 3.209 3.209 0 0 1-.416-1.625c0-.598.138-1.135.416-1.612a3.145 3.145 0 0 1 1.144-1.144 3.22 3.22 0 0 1 1.625-.416 3.2 3.2 0 0 1 1.287.26c.398.173.736.416 1.014.728l-.598.611a2.03 2.03 0 0 0-.754-.533 2.326 2.326 0 0 0-.949-.195c-.434 0-.819.1-1.157.299a2.11 2.11 0 0 0-.793.819c-.191.338-.286.732-.286 1.183 0 .442.095.841.286 1.196.19.347.455.62.793.819.338.199.723.299 1.157.299.346 0 .667-.061.962-.182a2.17 2.17 0 0 0 .754-.546l.611.611a2.885 2.885 0 0 1-1.04.741 3.2 3.2 0 0 1-1.287.26zm6.31 0a3.274 3.274 0 0 1-1.651-.416 3.12 3.12 0 0 1-1.157-1.144 3.244 3.244 0 0 1-.416-1.638 3.15 3.15 0 0 1 1.547-2.756 3.126 3.126 0 0 1 1.599-.416c.555 0 1.045.126 1.469.377.434.251.772.602 1.014 1.053.252.442.377.953.377 1.534a2.66 2.66 0 0 1-.065.559h-5.291v-.78h4.797l-.325.286c.009-.451-.069-.836-.234-1.157a1.661 1.661 0 0 0-.689-.754c-.294-.182-.654-.273-1.079-.273-.442 0-.827.095-1.157.286a2.058 2.058 0 0 0-.78.806c-.182.338-.273.741-.273 1.209 0 .468.096.88.286 1.235.2.355.473.633.819.832.356.199.763.299 1.222.299.373 0 .715-.065 1.027-.195.312-.139.577-.342.793-.611l.585.598a2.966 2.966 0 0 1-1.066.793 3.333 3.333 0 0 1-1.352.273z"/><path fill="url(#a)" d="M39.125 152.02c9.347 14.398 18.518 22.074 34.738 29.091 1.62.7 1.671 3.02.063 3.747l-49.48 22.35c-1.534.693-3.189-.701-2.761-2.329L35.41 152.58c.449-1.711 2.751-2.043 3.714-.56z"/><path fill="url(#b)" d="M160.368 74.506c-9.473-14.317-18.71-21.913-34.991-28.787-1.626-.687-1.698-3.006-.095-3.747l49.283-22.78c1.527-.707 3.194.673 2.781 2.304l-13.269 52.417c-.434 1.715-2.734 2.067-3.709.593z"/><g clip-path="url(#c)"><ellipse cx="100.5" cy="114" fill="url(#d)" rx="64.5" ry="65"/><circle cx="76" cy="86" r="37" fill="url(#e)"/><circle cx="125" cy="142" r="37" fill="url(#f)" transform="rotate(-90 125 142)"/><path stroke="#fff" stroke-linecap="round" stroke-width="4" d="M74 135v-17.354a3 3 0 0 1 1.377-2.523l16.231-10.438a3.002 3.002 0 0 1 3.245 0l16.231 10.438a2.998 2.998 0 0 1 1.378 2.523V132a3 3 0 0 1-3 3H88.538a3 3 0 0 1-3-3v-15.346M124 135V96.004a3 3 0 0 0-1.377-2.523l-16.24-10.443a3 3 0 0 0-3.233-.008L86.928 93.347a3 3 0 0 0-1.39 2.531v4.706"/><rect width="6" height="6" x="96" y="120" fill="#fff" rx="1"/><rect width="6" height="6" x="101.8" y="93" fill="#fff" rx="1"/></g><defs><linearGradient id="a" x1="84.147" x2="-108.226" y1="211.379" y2="51.66" gradientUnits="userSpaceOnUse"><stop offset=".171" stop-color="#0040BD"/><stop offset=".288" stop-color="#001D56"/></linearGradient><linearGradient id="b" x1="114.829" x2="209" y1="15.542" y2="89.5" gradientUnits="userSpaceOnUse"><stop offset=".379" stop-color="#EB0013"/><stop offset=".834" stop-color="#5F0000"/></linearGradient><linearGradient id="d" x1="144.589" x2="57.781" y1="69.158" y2="156.115" gradientUnits="userSpaceOnUse"><stop stop-color="#EB0013"/><stop offset="1" stop-color="#0040BD"/></linearGradient><linearGradient id="e" x1="113" x2="113" y1="49" y2="123" gradientUnits="userSpaceOnUse"><stop stop-color="#560D27"/><stop offset="1" stop-color="#1E39A8" stop-opacity="0"/></linearGradient><linearGradient id="f" x1="145.144" x2="88" y1="149.4" y2="105" gradientUnits="userSpaceOnUse"><stop stop-color="#741135" stop-opacity="0"/><stop offset=".813" stop-color="#0E0D66"/></linearGradient><clipPath id="c"><rect width="129" height="130" x="36" y="49" fill="#fff" rx="64.5"/></clipPath></defs></svg>