<svg xmlns="http://www.w3.org/2000/svg" width="200" height="227" fill="none"><path fill="url(#a)" d="M39.125 152.02c9.347 14.398 18.518 22.074 34.738 29.091 1.62.7 1.671 3.02.063 3.747l-49.48 22.35c-1.534.693-3.189-.701-2.761-2.329L35.41 152.58c.449-1.711 2.751-2.043 3.714-.56z"/><path fill="url(#b)" d="M160.368 74.506c-9.472-14.317-18.71-21.913-34.991-28.787-1.626-.687-1.697-3.006-.095-3.747l49.283-22.78c1.528-.707 3.194.673 2.782 2.304l-13.27 52.417c-.434 1.715-2.733 2.067-3.709.593z"/><g clip-path="url(#c)"><ellipse cx="100.5" cy="114" fill="url(#d)" rx="64.5" ry="65"/><circle cx="76" cy="86" r="37" fill="url(#e)"/><circle cx="125" cy="142" r="37" fill="url(#f)" transform="rotate(-90 125 142)"/><path stroke="#fff" stroke-linecap="round" stroke-width="4" d="M74 135v-17.354a3 3 0 0 1 1.377-2.523l16.231-10.438a3.002 3.002 0 0 1 3.245 0l16.231 10.438a2.998 2.998 0 0 1 1.378 2.523V132a3 3 0 0 1-3 3H88.538a3 3 0 0 1-3-3v-15.346M124 135V96.004a3 3 0 0 0-1.377-2.523l-16.24-10.443a3 3 0 0 0-3.233-.008L86.928 93.347a3 3 0 0 0-1.39 2.531v4.706"/><rect width="6" height="6" x="96" y="120" fill="#fff" rx="1"/><rect width="6" height="6" x="101.8" y="93" fill="#fff" rx="1"/></g><defs><linearGradient id="a" x1="84.147" x2="-108.226" y1="211.379" y2="51.66" gradientUnits="userSpaceOnUse"><stop offset=".171" stop-color="#0040BD"/><stop offset=".288" stop-color="#001D56"/></linearGradient><linearGradient id="b" x1="114.83" x2="209" y1="15.542" y2="89.5" gradientUnits="userSpaceOnUse"><stop offset=".379" stop-color="#EB0013"/><stop offset=".834" stop-color="#5F0000"/></linearGradient><linearGradient id="d" x1="144.589" x2="57.781" y1="69.158" y2="156.115" gradientUnits="userSpaceOnUse"><stop stop-color="#EB0013"/><stop offset="1" stop-color="#0040BD"/></linearGradient><linearGradient id="e" x1="113" x2="113" y1="49" y2="123" gradientUnits="userSpaceOnUse"><stop stop-color="#560D27"/><stop offset="1" stop-color="#1E39A8" stop-opacity="0"/></linearGradient><linearGradient id="f" x1="145.144" x2="88" y1="149.4" y2="105" gradientUnits="userSpaceOnUse"><stop stop-color="#741135" stop-opacity="0"/><stop offset=".813" stop-color="#0E0D66"/></linearGradient><clipPath id="c"><rect width="129" height="130" x="36" y="49" fill="#fff" rx="64.5"/></clipPath></defs></svg>